HIERARCHY
ROOT Hips
{
	OFFSET 0.000000 0.000000 0.000000
	CHANNELS 6 Xposition Yposition Zposition Zrotation Yrotation Xrotation 
	JOINT LHipJoint
	{
		OFFSET 0.000000 0.000000 0.000000
		CHANNELS 3 Zrotation Yrotation Xrotation
		JOINT LeftUpLeg
		{
			OFFSET 1.363060 -1.794630 0.839290
			CHANNELS 3 Zrotation Yrotation Xrotation
			JOINT LeftLeg
			{
				OFFSET 2.448110 -6.726130 0.000000
				CHANNELS 3 Zrotation Yrotation Xrotation
				JOINT LeftFoot
				{
					OFFSET 2.562200 -7.039590 0.000000
					CHANNELS 3 Zrotation Yrotation Xrotation
					JOINT LeftToeBase
					{
						OFFSET 0.157640 -0.433110 2.322550
						CHANNELS 3 Zrotation Yrotation Xrotation
						End Site
						{
							OFFSET 0.000000 0.000000 0.000000
						}
					}
				}
			}
		}
	}
	JOINT RHipJoint
	{
		OFFSET 0.000000 0.000000 0.000000
		CHANNELS 3 Zrotation Yrotation Xrotation
		JOINT RightUpLeg
		{
			OFFSET -1.305520 -1.794630 0.839290
			CHANNELS 3 Zrotation Yrotation Xrotation
			JOINT RightLeg
			{
				OFFSET -2.542530 -6.985550 0.000000
				CHANNELS 3 Zrotation Yrotation Xrotation
				JOINT RightFoot
				{
					OFFSET -2.568260 -7.056230 0.000000
					CHANNELS 3 Zrotation Yrotation Xrotation
					JOINT RightToeBase
					{
						OFFSET -0.164730 -0.452590 2.363150
						CHANNELS 3 Zrotation Yrotation Xrotation
						End Site
						{
							OFFSET 0.000000 0.000000 0.000000
						}
					}
				}
			}
		}
	}
	JOINT LowerBack
	{
		OFFSET 0.000000 0.000000 0.000000
		CHANNELS 3 Zrotation Yrotation Xrotation
		JOINT Spine
		{
			OFFSET 0.028270 2.035590 -0.193380
			CHANNELS 3 Zrotation Yrotation Xrotation
			JOINT Spine1
			{
				OFFSET 0.056720 2.048850 -0.042750
				CHANNELS 3 Zrotation Yrotation Xrotation
				JOINT Neck
				{
					OFFSET 0.000000 0.000000 0.000000
					CHANNELS 3 Zrotation Yrotation Xrotation
					JOINT Neck1
					{
						OFFSET -0.054170 1.746240 0.172020
						CHANNELS 3 Zrotation Yrotation Xrotation
						JOINT Head
						{
							OFFSET 0.104070 1.761360 -0.123970
							CHANNELS 3 Zrotation Yrotation Xrotation
							End Site
							{
								OFFSET 0.000000 0.000000 0.000000
							}
						}
					}
				}
				JOINT LeftShoulder
				{
					OFFSET 0.000000 0.000000 0.000000
					CHANNELS 3 Zrotation Yrotation Xrotation
					JOINT LeftArm
					{
						OFFSET 3.362410 1.200890 -0.311210
						CHANNELS 3 Zrotation Yrotation Xrotation
						JOINT LeftForeArm
						{
							OFFSET 4.983000 -0.000000 -0.000000
							CHANNELS 3 Zrotation Yrotation Xrotation
							JOINT LeftHand
							{
								OFFSET 3.483560 -0.000000 -0.000000
								CHANNELS 3 Zrotation Yrotation Xrotation
								JOINT LeftFingerBase
								{
									OFFSET 0.000000 0.000000 0.000000
									CHANNELS 3 Zrotation Yrotation Xrotation
									JOINT LeftHandIndex1
									{
										OFFSET 0.715260 -0.000000 -0.000000
										CHANNELS 3 Zrotation Yrotation Xrotation
										End Site
										{
											OFFSET 0.000000 0.000000 0.000000
										}
									}
								}
								JOINT LThumb
								{
									OFFSET 0.000000 0.000000 0.000000
									CHANNELS 3 Zrotation Yrotation Xrotation
									End Site
									{
										OFFSET 0.000000 0.000000 0.000000
									}
								}
							}
						}
					}
				}
				JOINT RightShoulder
				{
					OFFSET 0.000000 0.000000 0.000000
					CHANNELS 3 Zrotation Yrotation Xrotation
					JOINT RightArm
					{
						OFFSET -3.136600 1.374050 -0.404650
						CHANNELS 3 Zrotation Yrotation Xrotation
						JOINT RightForeArm
						{
							OFFSET -5.241900 -0.000000 -0.000000
							CHANNELS 3 Zrotation Yrotation Xrotation
							JOINT RightHand
							{
								OFFSET -3.444170 -0.000000 -0.000000
								CHANNELS 3 Zrotation Yrotation Xrotation
								JOINT RightFingerBase
								{
									OFFSET 0.000000 0.000000 0.000000
									CHANNELS 3 Zrotation Yrotation Xrotation
									JOINT RightHandIndex1
									{
										OFFSET -0.622530 -0.000000 -0.000000
										CHANNELS 3 Zrotation Yrotation Xrotation
										End Site
										{
											OFFSET 0.000000 0.000000 0.000000
										}
									}
								}
								JOINT RThumb
								{
									OFFSET 0.000000 0.000000 0.000000
									CHANNELS 3 Zrotation Yrotation Xrotation
									End Site
									{
										OFFSET 0.000000 0.000000 0.000000
									}
								}
							}
						}
					}
				}
			}
		}
	}
}
MOTION
Frames: 4
Frame Time: 0.008333
5.462236 17.920820 1.753467 86.431839 -89.341798 -46.822595 -11.319159 1.868798 1.427499 -7.497810 10.196520 -38.720238 -0.671462 0.922104 32.505196 2.324283 12.646490 32.696197 7.557800 -0.000000 -69.349400 11.582093 -2.059050 -0.654931 8.146258 -17.879492 -35.547905 2.226376 -2.192515 29.002090 0.019269 4.475780 24.146123 2.265700 0.000000 -87.423500 -0.207056 -1.027994 -0.708573 0.059781 -0.969926 -3.688419 -1.548434 -1.018468 -3.317448 0.676421 -3.651092 -6.971364 0.222589 0.030897 -0.184532 0.000000 0.000000 0.000000 14.360684 -6.135078 1.050167 -60.492449 -44.506356 5.593536 0.646458 -61.560916 -0.219348 19.663175 -8.488600 -1.629207 -0.250011 0.774221 -0.000000 0.000000 0.000000 0.000000 0.000000 0.000000 0.000000 -8.299257 3.454067 2.826031 59.983803 49.849966 17.896675 0.170469 46.196991 -0.094475 -14.550418 14.659761 -1.989142 0.206812 -0.609787 -0.000000 0.000000 0.000000 0.000000 0.000000 0.000000 0.000000 
5.278164 18.099520 1.738915 98.090479 -89.419512 -58.396282 -11.315137 1.666808 1.316476 -7.651395 10.532112 -39.659924 -0.632655 0.967471 33.689769 2.414285 13.358038 32.972846 8.071800 -0.000000 -65.960500 11.500891 -2.018999 -0.643406 8.298026 -17.833784 -36.760842 2.184708 -2.356791 30.473333 -0.071082 3.618468 23.817195 1.813600 0.000000 -86.395601 -0.137066 -1.039026 -0.600652 0.116853 -0.978286 -3.684340 -1.380033 -1.021857 -3.394222 0.436951 -3.496955 -6.875249 0.353065 0.038836 -0.150966 0.000000 0.000000 0.000000 14.650245 -6.076313 0.879865 -58.926964 -45.845190 4.161881 0.698210 -62.951282 -0.219909 19.111425 -8.361038 -1.562585 -0.234578 0.788051 -0.000000 0.000000 0.000000 0.000000 0.000000 0.000000 0.000000 -9.058962 3.581525 2.725840 58.190065 51.895803 16.916166 0.030613 46.666694 -0.097428 -14.219911 14.293499 -1.897772 0.199840 -0.622162 -0.000000 0.000000 0.000000 0.000000 0.000000 0.000000 0.000000 
5.101151 18.265514 1.723553 110.599368 -89.385169 -70.676479 -11.316156 1.451271 1.210944 -7.916351 10.678919 -40.954349 -0.600034 1.059609 35.257924 2.482096 14.046244 32.360473 8.442000 -0.000000 -63.177500 11.379029 -1.945196 -0.611835 8.436570 -17.616758 -38.281397 2.149293 -2.540298 32.165742 -0.143422 2.666339 22.732912 1.269300 0.000000 -85.613899 -0.133676 -1.069048 -0.500127 0.156373 -1.002660 -3.684191 -1.220827 -1.041625 -3.476192 0.226459 -3.398137 -6.792512 0.479373 0.046859 -0.123121 0.000000 0.000000 0.000000 14.944481 -5.966942 0.707388 -57.199493 -47.179724 2.404627 0.737872 -64.348117 -0.220167 18.567753 -8.245137 -1.499671 -0.218469 0.801454 -0.000000 0.000000 0.000000 0.000000 0.000000 0.000000 0.000000 -9.767435 3.618909 2.603689 56.244994 53.944160 15.561023 -0.127650 47.154753 -0.101841 -14.055968 13.966926 -1.835609 0.194089 -0.636219 -0.000000 0.000000 0.000000 0.000000 0.000000 0.000000 0.000000 
4.940561 18.425828 1.694107 149.110588 -88.586912 -109.113280 -11.400396 1.213416 0.777663 -8.723032 11.546706 -41.928702 -0.638168 1.214329 36.809571 2.506301 14.595246 31.001152 8.578000 0.000000 -61.159000 11.186781 -1.791126 -0.498260 7.858154 -16.639324 -39.761421 2.032415 -2.739426 34.137897 -0.220048 1.773612 21.056887 0.767100 0.000000 -85.086899 -0.813844 -0.974939 -0.090189 0.020539 -0.865010 -3.615922 -1.071567 -0.896424 -3.589684 0.154656 -3.353292 -6.726627 0.599551 0.055281 -0.107334 0.000000 0.000000 0.000000 15.399881 -5.773766 0.519917 -55.125373 -48.497139 0.177135 0.772512 -65.692276 -0.220472 18.099654 -8.165263 -1.449746 -0.203901 0.813456 -0.000000 0.000000 0.000000 0.000000 0.000000 0.000000 0.000000 -10.253516 3.668968 2.472438 54.113156 56.070897 13.707023 -0.306669 47.608583 -0.108563 -14.065348 13.681138 -1.802237 0.188795 -0.654024 -0.000000 0.000000 0.000000 0.000000 0.000000 0.000000 0.000000 
